# xmcd
#
# Track frame offsets:
#	150
#	15356
#	37717
#	58635
#	87847
#	104374
#
# Disc length: 1614 seconds
# Revision: 0
# Processed by: cddbd v1.5.2PL0 Copyright (c) Steve Scherf et al.
# Submitted via: dBpowerAMP V12.0
#
DISCID=37064c06
DTITLE=Ilona - Fragile Heart
DYEAR=2016
DGENRE=Country Pop
TTITLE0=I Still Fall For You.Wav
TTITLE1=Best Day of my Life.Wav
TTITLE2=Safety Net
TTITLE3=Beautiful Country
TTITLE4=Back to You
TTITLE5=Best Day of my Life (Radio Edit)
EXTD=
EXTT0=
EXTT1=
EXTT2=
EXTT3=
EXTT4=
EXTT5=
PLAYORDER=
